<svg width="15" height="16" viewBox="0 0 15 16" fill="none" xmlns="http://www.w3.org/2000/svg">
<path d="M3.5079 4.24744C3.25207 5.31428 3.24137 6.42523 3.47657 7.49681C3.71178 8.56839 4.18679 9.57272 4.86591 10.4343C5.54503 11.296 6.41059 11.9925 7.39756 12.4715C8.38453 12.9506 9.46724 13.1997 10.5643 13.2002C10.7678 13.2002 10.9631 13.2002 11.1666 13.2002C10.2641 13.9091 9.17376 14.3381 8.03022 14.4344C6.88667 14.5307 5.73995 14.2901 4.73159 13.7422C3.72323 13.1943 2.89736 12.3631 2.35592 11.3513C1.81449 10.3394 1.58117 9.19121 1.68478 8.04831C1.79689 6.59824 2.44718 5.2425 3.5079 4.24744ZM7.57735 0.991877C6.36485 0.987216 5.16928 1.27644 4.09298 1.83478C3.01668 2.39312 2.09171 3.20395 1.39724 4.19787C0.702764 5.19179 0.259479 6.33919 0.105327 7.54186C-0.0488243 8.74453 0.0907481 9.96664 0.512097 11.1036C0.933446 12.2405 1.62402 13.2584 2.52471 14.0702C3.4254 14.8819 4.50938 15.4633 5.68386 15.7646C6.85833 16.0659 8.08832 16.0781 9.26855 15.8002C10.4488 15.5222 11.5441 14.9625 12.4607 14.1688C13.8858 12.9414 14.7931 11.2199 15 9.35053C14.7757 9.64909 14.5191 9.92203 14.235 10.1644C13.2171 11.0492 11.913 11.535 10.5643 11.5318C9.41364 11.5346 8.28977 11.1844 7.34435 10.5285C6.39894 9.87253 5.67749 8.94236 5.27735 7.86348C4.8772 6.78461 4.81763 5.60895 5.10666 4.49515C5.39569 3.38135 6.01942 2.38302 6.89368 1.63485C7.1732 1.39166 7.47577 1.17632 7.7971 0.991877H7.57735Z" fill="white"/>
</svg>
