<svg width="15" height="15" viewBox="0 0 15 15" fill="none" xmlns="http://www.w3.org/2000/svg">
<path d="M7.4959 5.69712C7.86078 5.69069 8.21926 5.79342 8.52535 5.99214C8.83144 6.19086 9.07117 6.4765 9.21379 6.81242C9.35641 7.14833 9.39541 7.51919 9.3258 7.87743C9.25618 8.23566 9.08111 8.56493 8.82306 8.82298C8.56501 9.08103 8.23575 9.25609 7.87752 9.32571C7.51928 9.39533 7.14842 9.35632 6.8125 9.2137C6.47659 9.07108 6.19095 8.83135 5.99223 8.52526C5.79351 8.21918 5.69077 7.86069 5.6972 7.49581C5.70557 7.02138 5.89775 6.56872 6.23328 6.23319C6.56881 5.89767 7.02147 5.70548 7.4959 5.69712ZM7.4959 4.06934C6.81177 4.06934 6.143 4.2722 5.57416 4.65229C5.00533 5.03237 4.56198 5.5726 4.30017 6.20466C4.03836 6.83671 3.96986 7.53221 4.10333 8.20319C4.2368 8.87418 4.56624 9.49052 5.04999 9.97428C5.53375 10.458 6.15009 10.7875 6.82108 10.9209C7.49206 11.0544 8.18756 10.9859 8.81962 10.7241C9.45167 10.4623 9.9919 10.0189 10.372 9.45011C10.7521 8.88127 10.9549 8.2125 10.9549 7.52837C10.9549 6.61098 10.5905 5.73116 9.94181 5.08246C9.29311 4.43377 8.41329 4.06934 7.4959 4.06934Z" fill="black"/>
<path d="M8.30985 0H6.68207V2.71025H8.30985V0Z" fill="black"/>
<path d="M8.30985 12.2898H6.68207V15H8.30985V12.2898Z" fill="black"/>
<path d="M15 6.68213H12.2897V8.30991H15V6.68213Z" fill="black"/>
<path d="M2.71025 6.68213H0V8.30991H2.71025V6.68213Z" fill="black"/>
<path d="M2.7645 1.61969L1.61328 2.77051L3.52939 4.68728L4.6806 3.53647L2.7645 1.61969Z" fill="black"/>
<path d="M11.4599 10.314L10.3087 11.4648L12.2248 13.3816L13.376 12.2308L11.4599 10.314Z" fill="black"/>
<path d="M12.2293 1.61725L10.3129 3.53369L11.4639 4.68471L13.3803 2.76827L12.2293 1.61725Z" fill="black"/>
<path d="M3.53936 10.3069L1.62292 12.2234L2.77394 13.3744L4.69038 11.458L3.53936 10.3069Z" fill="black"/>
</svg>
