<svg xmlns="http://www.w3.org/2000/svg" viewBox="0 0 255.36 57.69"><defs><style>.cls-1{fill:#262b90;}</style></defs><title>Zasób 1</title><g id="Warstwa_2" data-name="Warstwa 2"><g id="Warstwa_1-2" data-name="Warstwa 1"><polygon class="cls-1" points="32.45 45.94 26.67 45.94 26.67 23.82 45.77 14.42 29.56 6.44 13.62 14.29 23.15 18.53 20.8 23.81 0 14.55 29.56 0 58.85 14.42 32.45 27.41 32.45 45.94"/><rect class="cls-1" x="26.67" y="51.43" width="5.78" height="5.84"/><path class="cls-1" d="M51.2,57.69a15.21,15.21,0,0,1-4.43-.64,10.93,10.93,0,0,1-3.84-2,9.73,9.73,0,0,1-2.68-3.66,13.49,13.49,0,0,1-1-5.44V28.52H46V45.91a6,6,0,0,0,1.26,3.87,4.77,4.77,0,0,0,4,1.57,4.76,4.76,0,0,0,3.95-1.57,6,6,0,0,0,1.26-3.87V28.52h6.73V45.91a13.49,13.49,0,0,1-1,5.44A9.63,9.63,0,0,1,59.47,55a11,11,0,0,1-3.83,2A15.33,15.33,0,0,1,51.2,57.69Z"/><path class="cls-1" d="M67.73,57.3V36.69h6.66V39.6h.19a12.22,12.22,0,0,1,1.07-1.4,5.72,5.72,0,0,1,1.83-1.34,6.54,6.54,0,0,1,2.86-.56,6.06,6.06,0,0,1,6.14,4,9.77,9.77,0,0,1,.67,3.56V57.3H80.49V45.09a4,4,0,0,0-.7-2.35,2.56,2.56,0,0,0-2.29-1,2.59,2.59,0,0,0-2.43,1.15,4.78,4.78,0,0,0-.68,2.51V57.3Z"/><path class="cls-1" d="M95.2,34.24a3.75,3.75,0,0,1-2.76-1.09,3.52,3.52,0,0,1-1.09-2.57,3.6,3.6,0,0,1,1.09-2.65,4,4,0,0,1,5.52,0,3.6,3.6,0,0,1,1.09,2.65A3.52,3.52,0,0,1,98,33.15,3.78,3.78,0,0,1,95.2,34.24ZM91.85,57.3V36.69h6.66V57.3Z"/><path class="cls-1" d="M117.29,57.69a15.4,15.4,0,0,1-6.45-1.26A13.32,13.32,0,0,1,106.23,53a14.53,14.53,0,0,1-2.78-4.76,16,16,0,0,1,0-10.8,14.36,14.36,0,0,1,2.78-4.72,13.53,13.53,0,0,1,4.61-3.37,17.06,17.06,0,0,1,12.87,0,13.53,13.53,0,0,1,4.61,3.37,14.38,14.38,0,0,1,2.79,4.72,16.15,16.15,0,0,1,0,10.66,14.31,14.31,0,0,1-2.58,4.65l3.93,4.51h-6.93l-1.09-1.24a14.85,14.85,0,0,1-3.32,1.21A17.16,17.16,0,0,1,117.29,57.69Zm0-6a8,8,0,0,0,2.84-.5l-4.35-4.9,4.2-3.39,4,4.63a10.56,10.56,0,0,0,.17-8.81,8,8,0,0,0-2.61-3.29,7.78,7.78,0,0,0-8.55,0,7.83,7.83,0,0,0-2.59,3.29,10.69,10.69,0,0,0,0,8.4A7.83,7.83,0,0,0,113,50.38,7,7,0,0,0,117.29,51.66Z"/><path class="cls-1" d="M141.8,57.69a6.23,6.23,0,0,1-3.63-.95,5.65,5.65,0,0,1-2-2.53,8.92,8.92,0,0,1-.66-3.48v-14H142V49.25a3.32,3.32,0,0,0,.7,2.18,2.54,2.54,0,0,0,2.1.86,2.48,2.48,0,0,0,2.27-1.07,4.42,4.42,0,0,0,.68-2.44V36.69h6.66V57.3h-6.66V54.39h-.23a7.19,7.19,0,0,1-2.18,2.33A6.1,6.1,0,0,1,141.8,57.69Z"/><path class="cls-1" d="M167.36,36.3a6.88,6.88,0,0,1,5.19,2,5.37,5.37,0,0,1,.72.84h.32V36.69h6.65V57.3h-6.65V54.85h-.32a6.13,6.13,0,0,1-.72.86,6.54,6.54,0,0,1-1.9,1.34,7.24,7.24,0,0,1-3.29.64,8.09,8.09,0,0,1-3.93-.91,8.56,8.56,0,0,1-2.8-2.45A10.78,10.78,0,0,1,159,50.89a14.07,14.07,0,0,1,0-7.79,10.78,10.78,0,0,1,1.67-3.44,8.56,8.56,0,0,1,2.8-2.45A8.09,8.09,0,0,1,167.36,36.3Zm2.1,5.33a3.68,3.68,0,0,0-2.41.79,4.78,4.78,0,0,0-1.44,2,7.13,7.13,0,0,0,0,5.09,4.78,4.78,0,0,0,1.44,2,3.68,3.68,0,0,0,2.41.79,3.59,3.59,0,0,0,2.39-.79,5,5,0,0,0,1.44-2,6.85,6.85,0,0,0,0-5.09,5,5,0,0,0-1.44-2A3.59,3.59,0,0,0,169.46,41.63Z"/><path class="cls-1" d="M184.59,57.3V36.69h6.66V39.6h.19a12.22,12.22,0,0,1,1.07-1.4,5.72,5.72,0,0,1,1.83-1.34,6.54,6.54,0,0,1,2.86-.56,6.08,6.08,0,0,1,6.15,4,10,10,0,0,1,.66,3.56V57.3h-6.65V45.09a4.05,4.05,0,0,0-.71-2.35,2.56,2.56,0,0,0-2.29-1,2.59,2.59,0,0,0-2.43,1.15,4.78,4.78,0,0,0-.68,2.51V57.3Z"/><path class="cls-1" d="M216.61,57.69a8.09,8.09,0,0,1-3.93-.91,8.56,8.56,0,0,1-2.8-2.45,10.78,10.78,0,0,1-1.67-3.44,14.07,14.07,0,0,1,0-7.79,10.78,10.78,0,0,1,1.67-3.44,8.56,8.56,0,0,1,2.8-2.45,8.09,8.09,0,0,1,3.93-.91,6.88,6.88,0,0,1,5.19,2,5.37,5.37,0,0,1,.72.84h.32V27.74h6.65V57.3h-6.65V54.85h-.32a6.13,6.13,0,0,1-.72.86,6.54,6.54,0,0,1-1.9,1.34A7.24,7.24,0,0,1,216.61,57.69Zm2.1-5.33a3.59,3.59,0,0,0,2.39-.79,5,5,0,0,0,1.44-2,6.85,6.85,0,0,0,0-5.09,5,5,0,0,0-1.44-2,3.59,3.59,0,0,0-2.39-.79,3.68,3.68,0,0,0-2.41.79,4.78,4.78,0,0,0-1.44,2,7.13,7.13,0,0,0,0,5.09,4.78,4.78,0,0,0,1.44,2A3.68,3.68,0,0,0,218.71,52.36Z"/><path class="cls-1" d="M242.48,36.3a6.88,6.88,0,0,1,5.19,2,5.37,5.37,0,0,1,.72.84h.31V36.69h6.66V57.3H248.7V54.85h-.31a6.13,6.13,0,0,1-.72.86,6.54,6.54,0,0,1-1.9,1.34,7.27,7.27,0,0,1-3.29.64,8.09,8.09,0,0,1-3.93-.91,8.56,8.56,0,0,1-2.8-2.45,10.78,10.78,0,0,1-1.67-3.44,14.07,14.07,0,0,1,0-7.79,10.78,10.78,0,0,1,1.67-3.44,8.56,8.56,0,0,1,2.8-2.45A8.09,8.09,0,0,1,242.48,36.3Zm2.1,5.33a3.68,3.68,0,0,0-2.41.79,4.78,4.78,0,0,0-1.44,2,7.13,7.13,0,0,0,0,5.09,4.78,4.78,0,0,0,1.44,2,3.68,3.68,0,0,0,2.41.79,3.59,3.59,0,0,0,2.39-.79,5,5,0,0,0,1.44-2,6.85,6.85,0,0,0,0-5.09,5,5,0,0,0-1.44-2A3.59,3.59,0,0,0,244.58,41.63Z"/></g></g></svg>