<svg xmlns="http://www.w3.org/2000/svg" viewBox="0 0 159.07 48.85"><defs><style>.cls-1{fill:#ffcd00;}.cls-2{fill:#1d1d1b;}</style></defs><title>premium_light_mode</title><g id="Warstwa_2" data-name="Warstwa 2"><g id="icons"><polygon class="cls-1" points="27.68 39.18 22.75 39.18 22.75 20.32 39.04 12.3 25.21 5.49 11.62 12.19 19.75 15.8 17.74 20.3 0 12.41 25.21 0 50.2 12.3 27.68 23.38 27.68 39.18"/><rect class="cls-1" x="22.75" y="43.87" width="4.93" height="4.98"/><path class="cls-2" d="M47.83,28.17a11.88,11.88,0,0,1,6.71,1.59,5.62,5.62,0,0,1,2.33,5,6.71,6.71,0,0,1-.62,3,5.28,5.28,0,0,1-1.81,2.06A8.6,8.6,0,0,1,51.54,41a18.45,18.45,0,0,1-3.92.37H45.8v7.08H42.14V28.66A19,19,0,0,1,45,28.27C46,28.2,47,28.17,47.83,28.17Zm.26,3.16c-.93,0-1.69,0-2.29.09v6.84h1.77a9,9,0,0,0,4-.74,2.85,2.85,0,0,0,1.43-2.8,3.33,3.33,0,0,0-.38-1.65,2.69,2.69,0,0,0-1.05-1A5,5,0,0,0,50,31.49,10.92,10.92,0,0,0,48.09,31.33Z"/><path class="cls-2" d="M68.68,36.46a11.15,11.15,0,0,0-1.21-.3A8.52,8.52,0,0,0,65.69,36a7.69,7.69,0,0,0-1.23.11,7.42,7.42,0,0,0-.92.21V48.47H60V34a18.93,18.93,0,0,1,2.53-.71A15.35,15.35,0,0,1,66,33c.23,0,.5,0,.81.05s.62.06.93.11.61.11.9.18a6,6,0,0,1,.7.19Z"/><path class="cls-2" d="M70.88,41a9.42,9.42,0,0,1,.6-3.51,7.23,7.23,0,0,1,1.58-2.51,6.46,6.46,0,0,1,2.26-1.51,7,7,0,0,1,2.61-.51,6.22,6.22,0,0,1,4.88,1.95c1.17,1.29,1.76,3.23,1.76,5.8,0,.19,0,.41,0,.65s0,.46,0,.65h-10A4,4,0,0,0,75.8,44.8a4.88,4.88,0,0,0,3.32,1,11.15,11.15,0,0,0,2.33-.23,10.59,10.59,0,0,0,1.67-.49L83.58,48a5.82,5.82,0,0,1-.79.3,11.54,11.54,0,0,1-1.16.29c-.44.09-.91.16-1.41.22a13,13,0,0,1-1.54.09,9.25,9.25,0,0,1-3.48-.6,6.43,6.43,0,0,1-2.43-1.65,6.65,6.65,0,0,1-1.42-2.5A10.09,10.09,0,0,1,70.88,41Zm10.18-1.57a4.85,4.85,0,0,0-.2-1.38,3.49,3.49,0,0,0-.6-1.13,2.78,2.78,0,0,0-1-.75A3.13,3.13,0,0,0,78,35.85,3.12,3.12,0,0,0,75.51,37a3.62,3.62,0,0,0-.66,1.13,5.86,5.86,0,0,0-.31,1.3Z"/><path class="cls-2" d="M96.92,40.49a7.45,7.45,0,0,0-.59-3.43A2.32,2.32,0,0,0,94.11,36a10.1,10.1,0,0,0-1.28.09c-.46,0-.81.1-1,.14V48.47H88.28V33.8a23.17,23.17,0,0,1,2.65-.56A22.63,22.63,0,0,1,94.4,33a7,7,0,0,1,2.57.41,5,5,0,0,1,1.66,1.07,7.7,7.7,0,0,1,.82-.49,8.83,8.83,0,0,1,1.1-.48,9.31,9.31,0,0,1,1.29-.36,6.34,6.34,0,0,1,1.38-.15,7.19,7.19,0,0,1,2.91.51,4.35,4.35,0,0,1,1.8,1.42,5.72,5.72,0,0,1,.9,2.21,15.44,15.44,0,0,1,.24,2.82v8.53h-3.51v-8a7.47,7.47,0,0,0-.58-3.43A2.3,2.3,0,0,0,102.75,36a4.66,4.66,0,0,0-1.59.27,5.46,5.46,0,0,0-1.13.54,7.5,7.5,0,0,1,.31,1.54,15.79,15.79,0,0,1,.09,1.74v8.38H96.92Z"/><path class="cls-2" d="M117.28,28.86a2,2,0,0,1-.64,1.57,2.15,2.15,0,0,1-1.51.58,2.18,2.18,0,0,1-1.53-.58,2,2,0,0,1-.64-1.57,2,2,0,0,1,.64-1.59,2.18,2.18,0,0,1,1.53-.58,2.15,2.15,0,0,1,1.51.58A2,2,0,0,1,117.28,28.86Zm-.38,19.61h-3.51V33.3h3.51Z"/><path class="cls-2" d="M133.81,48c-.68.17-1.56.35-2.64.53a21.73,21.73,0,0,1-3.57.28,8.08,8.08,0,0,1-3.06-.52,5,5,0,0,1-2-1.46,5.76,5.76,0,0,1-1.06-2.21,12,12,0,0,1-.32-2.83V33.3h3.51v8a6.46,6.46,0,0,0,.71,3.48,2.8,2.8,0,0,0,2.48,1q.64,0,1.35-.06a5.93,5.93,0,0,0,1.06-.14V33.3h3.51Z"/><path class="cls-2" d="M146.92,40.49a7.3,7.3,0,0,0-.6-3.43A2.3,2.3,0,0,0,144.1,36a10,10,0,0,0-1.27.09c-.46,0-.81.1-1,.14V48.47h-3.51V33.8a23.2,23.2,0,0,1,6.11-.82,6.91,6.91,0,0,1,2.57.41,5.05,5.05,0,0,1,1.67,1.07,6.59,6.59,0,0,1,.81-.49,10.36,10.36,0,0,1,1.1-.48,10.16,10.16,0,0,1,1.29-.36,6.48,6.48,0,0,1,1.38-.15,7.16,7.16,0,0,1,2.91.51,4.22,4.22,0,0,1,1.8,1.42,5.43,5.43,0,0,1,.9,2.21,14.58,14.58,0,0,1,.25,2.82v8.53h-3.51v-8a7.47,7.47,0,0,0-.58-3.43A2.31,2.31,0,0,0,152.75,36a4.72,4.72,0,0,0-1.6.27,5.73,5.73,0,0,0-1.13.54,7.51,7.51,0,0,1,.32,1.54,15.79,15.79,0,0,1,.09,1.74v8.38h-3.51Z"/></g></g></svg>