<svg xmlns="http://www.w3.org/2000/svg" width="113" height="40" viewBox="0 0 113 40">
  <g fill="none" fill-rule="evenodd">
    <rect width="113" height="40" fill="#FFF"/>
    <path fill="#000" fill-opacity=".54" d="M58.640625,23.7080078 C58.2805972,24.1774112 57.7815787,24.5328764 57.1435547,24.7744141 C56.5055307,25.0159517 55.7809285,25.1367188 54.9697266,25.1367188 C54.135738,25.1367188 53.3974642,24.947593 52.7548828,24.5693359 C52.1123015,24.1910788 51.616701,23.6499059 51.2680664,22.9458008 C50.9194319,22.2416957 50.7382813,21.4202521 50.7246094,20.4814453 L50.7246094,19.7021484 C50.7246094,18.1982347 51.0846318,17.0236045 51.8046875,16.1782227 C52.5247432,15.3328408 53.5296159,14.9101562 54.8193359,14.9101562 C55.9267633,14.9101562 56.8063118,15.183591 57.4580078,15.7304688 C58.1097038,16.2773465 58.5016269,17.0657501 58.6337891,18.0957031 L56.9384766,18.0957031 C56.7470694,16.8971294 56.0520893,16.2978516 54.8535156,16.2978516 C54.0787722,16.2978516 53.4897481,16.5769829 53.0864258,17.1352539 C52.6831035,17.6935249 52.4746094,18.5126899 52.4609375,19.5927734 L52.4609375,20.3583984 C52.4609375,21.4339246 52.6876605,22.26904 53.1411133,22.8637695 C53.5945661,23.4584991 54.2246053,23.7558594 55.03125,23.7558594 C55.915369,23.7558594 56.544269,23.5553405 56.9179688,23.1542969 L56.9179688,21.2060547 L54.8671875,21.2060547 L54.8671875,19.8935547 L58.640625,19.8935547 L58.640625,23.7080078 Z M60.2880859,21.2333984 C60.2880859,20.5087854 60.4316392,19.8559599 60.71875,19.2749023 C61.0058608,18.6938448 61.4091771,18.2472346 61.9287109,17.9350586 C62.4482448,17.6228826 63.045244,17.4667969 63.7197266,17.4667969 C64.7177784,17.4667969 65.5278289,17.7880827 66.1499023,18.4306641 C66.7719758,19.0732454 67.1080727,19.9254504 67.1582031,20.9873047 L67.1650391,21.3769531 C67.1650391,22.1061234 67.0249037,22.7578096 66.7446289,23.3320312 C66.4643541,23.9062529 66.0633164,24.3505844 65.5415039,24.6650391 C65.0196914,24.9794938 64.4169956,25.1367188 63.7333984,25.1367188 C62.6897734,25.1367188 61.8546581,24.7892287 61.2280273,24.0942383 C60.6013966,23.3992478 60.2880859,22.4729876 60.2880859,21.3154297 L60.2880859,21.2333984 Z M61.9492188,21.3769531 C61.9492188,22.1380246 62.1064437,22.7338846 62.4208984,23.1645508 C62.7353531,23.595217 63.1728488,23.8105469 63.7333984,23.8105469 C64.2939481,23.8105469 64.7303044,23.5917991 65.0424805,23.1542969 C65.3546565,22.7167947 65.5107422,22.0765016 65.5107422,21.2333984 C65.5107422,20.4859989 65.3500993,19.8935569 65.0288086,19.4560547 C64.7075179,19.0185525 64.2711616,18.7998047 63.7197266,18.7998047 C63.1774061,18.7998047 62.7467464,19.0151346 62.4277344,19.4458008 C62.1087224,19.876467 61.9492188,20.520178 61.9492188,21.3769531 Z M68.4775391,21.2333984 C68.4775391,20.5087854 68.6210923,19.8559599 68.9082031,19.2749023 C69.1953139,18.6938448 69.5986302,18.2472346 70.1181641,17.9350586 C70.6376979,17.6228826 71.2346971,17.4667969 71.9091797,17.4667969 C72.9072316,17.4667969 73.717282,17.7880827 74.3393555,18.4306641 C74.9614289,19.0732454 75.2975258,19.9254504 75.3476562,20.9873047 L75.3544922,21.3769531 C75.3544922,22.1061234 75.2143569,22.7578096 74.934082,23.3320312 C74.6538072,23.9062529 74.2527695,24.3505844 73.730957,24.6650391 C73.2091445,24.9794938 72.6064487,25.1367188 71.9228516,25.1367188 C70.8792266,25.1367188 70.0441112,24.7892287 69.4174805,24.0942383 C68.7908497,23.3992478 68.4775391,22.4729876 68.4775391,21.3154297 L68.4775391,21.2333984 Z M70.1386719,21.3769531 C70.1386719,22.1380246 70.2958969,22.7338846 70.6103516,23.1645508 C70.9248063,23.595217 71.3623019,23.8105469 71.9228516,23.8105469 C72.4834012,23.8105469 72.9197576,23.5917991 73.2319336,23.1542969 C73.5441096,22.7167947 73.7001953,22.0765016 73.7001953,21.2333984 C73.7001953,20.4859989 73.5395524,19.8935569 73.2182617,19.4560547 C72.896971,19.0185525 72.4606147,18.7998047 71.9091797,18.7998047 C71.3668593,18.7998047 70.9361995,19.0151346 70.6171875,19.4458008 C70.2981755,19.876467 70.1386719,20.520178 70.1386719,21.3769531 Z M76.6875,21.2470703 C76.6875,20.0986271 76.9575168,19.1814813 77.4975586,18.4956055 C78.0376004,17.8097296 78.7542273,17.4667969 79.6474609,17.4667969 C80.4905641,17.4667969 81.1536434,17.7607392 81.6367188,18.3486328 L81.7119141,17.6035156 L83.2089844,17.6035156 L83.2089844,24.7744141 C83.2089844,25.745122 82.9070668,26.5107394 82.3032227,27.0712891 C81.6993785,27.6318387 80.8847708,27.9121094 79.859375,27.9121094 C79.3170546,27.9121094 78.7872747,27.7993175 78.2700195,27.5737305 C77.7527643,27.3481434 77.3597019,27.0530617 77.0908203,26.6884766 L77.8769531,25.6904297 C78.3873723,26.2965525 79.0162723,26.5996094 79.7636719,26.5996094 C80.3151069,26.5996094 80.7503239,26.4503596 81.0693359,26.1518555 C81.3883479,25.8533514 81.5478516,25.4147164 81.5478516,24.8359375 L81.5478516,24.3369141 C81.0693335,24.8701199 80.4313191,25.1367188 79.6337891,25.1367188 C78.7678993,25.1367188 78.0603869,24.7926467 77.5112305,24.1044922 C76.9620741,23.4163377 76.6875,22.4638733 76.6875,21.2470703 Z M78.3417969,21.390625 C78.3417969,22.1334673 78.4933253,22.7179341 78.7963867,23.144043 C79.0994481,23.5701519 79.5198541,23.7832031 80.0576172,23.7832031 C80.7275424,23.7832031 81.2242822,23.4960966 81.5478516,22.921875 L81.5478516,19.6679688 C81.2333969,19.1074191 80.7412143,18.8271484 80.0712891,18.8271484 C79.5244113,18.8271484 79.0994481,19.0436176 78.7963867,19.4765625 C78.4933253,19.9095074 78.3417969,20.5475218 78.3417969,21.390625 Z M86.9003906,25 L85.2392578,25 L85.2392578,14.5 L86.9003906,14.5 L86.9003906,25 Z M92.1845703,25.1367188 C91.1318307,25.1367188 90.2784863,24.8051791 89.6245117,24.1420898 C88.9705371,23.4790006 88.6435547,22.5960342 88.6435547,21.4931641 L88.6435547,21.2880859 C88.6435547,20.549801 88.7859686,19.8901396 89.0708008,19.309082 C89.3556329,18.7280244 89.7555313,18.2757178 90.2705078,17.9521484 C90.7854843,17.6285791 91.3596974,17.4667969 91.9931641,17.4667969 C93.0003306,17.4667969 93.7784803,17.7880827 94.3276367,18.4306641 C94.8767931,19.0732454 95.1513672,19.982416 95.1513672,21.1582031 L95.1513672,21.828125 L90.3183594,21.828125 C90.3684898,22.4388051 90.5724266,22.9218732 90.9301758,23.2773438 C91.287925,23.6328143 91.737953,23.8105469 92.2802734,23.8105469 C93.041345,23.8105469 93.6611304,23.5029328 94.1396484,22.8876953 L95.0351562,23.7421875 C94.7389308,24.184247 94.3435897,24.5271798 93.8491211,24.7709961 C93.3546525,25.0148124 92.7998078,25.1367188 92.1845703,25.1367188 Z M91.9863281,18.7998047 C91.5305967,18.7998047 91.1625991,18.9593083 90.8823242,19.2783203 C90.6020494,19.5973323 90.4231775,20.0416638 90.3457031,20.6113281 L93.5107422,20.6113281 L93.5107422,20.4882812 C93.4742837,19.9322889 93.3261732,19.5118829 93.0664062,19.2270508 C92.8066393,18.9422186 92.4466169,18.7998047 91.9863281,18.7998047 Z"/>
    <g fill="#000" transform="translate(11 11)">
      <path fill="#EA4335" d="M9,3.48 C10.69,3.48 11.83,4.21 12.48,4.82 L15.02,2.34 C13.46,0.89 11.43,0 9,0 C5.48,0 2.44,2.02 0.96,4.96 L3.87,7.22 C4.6,5.05 6.62,3.48 9,3.48 L9,3.48 Z"/>
      <path fill="#4285F4" d="M17.64,9.2 C17.64,8.46 17.58,7.92 17.45,7.36 L9,7.36 L9,10.7 L13.96,10.7 C13.86,11.53 13.32,12.78 12.12,13.62 L14.96,15.82 C16.66,14.25 17.64,11.94 17.64,9.2 L17.64,9.2 Z"/>
      <path fill="#FBBC05" d="M3.88,10.78 C3.69,10.22 3.58,9.62 3.58,9 C3.58,8.38 3.69,7.78 3.87,7.22 L0.96,4.96 C0.35,6.18 0,7.55 0,9 C0,10.45 0.35,11.82 0.96,13.04 L3.88,10.78 L3.88,10.78 Z"/>
      <path fill="#34A853" d="M9,18 C11.43,18 13.47,17.2 14.96,15.82 L12.12,13.62 C11.36,14.15 10.34,14.52 9,14.52 C6.62,14.52 4.6,12.95 3.88,10.78 L0.97,13.04 C2.45,15.98 5.48,18 9,18 L9,18 Z"/>
      <polygon fill="none" points="0 0 18 0 18 18 0 18"/>
    </g>
  </g>
</svg>
