<svg xmlns="http://www.w3.org/2000/svg" viewBox="0 0 200 200"><defs><style>.cls-1{fill:#3c4d9c;}.cls-2,.cls-4{fill:#fff;}.cls-3{fill:#3c4e9c;}.cls-4,.cls-5{stroke:#3c4e9c;}.cls-4,.cls-5,.cls-6{stroke-miterlimit:10;stroke-width:4px;}.cls-5,.cls-6{fill:none;}.cls-6{stroke:#fff;}</style></defs><title>Zasób 61</title><g id="Warstwa_2" data-name="Warstwa 2"><g id="icons"><rect class="cls-1" width="200" height="200"/><circle class="cls-2" cx="100" cy="105.94" r="37.8"/><path class="cls-2" d="M23.88,200c0-36.15,34.08-65.45,76.12-65.45s76.12,29.3,76.12,65.45"/><path class="cls-2" d="M99.88,104.94c-9.38,0-35.92-10.55-37-11l-1.25-.5v-35h76.84v35l-1.26.5C136,94.39,109.26,104.94,99.88,104.94Z"/><path class="cls-3" d="M136.42,60.42V92.08S109,102.94,99.88,102.94s-36.3-10.86-36.3-10.86V60.42h72.84m4-4H59.58V94.79l2.51,1c2.86,1.14,28.19,11.14,37.79,11.14s35.13-10,38-11.14l2.52-1V56.42Z"/><polygon class="cls-4" points="100 39.86 42.43 64.36 100 88.86 157.57 64.36 100 39.86"/><polyline class="cls-5" points="95.95 58.57 153.57 61.36 153.57 121.67"/><polyline class="cls-6" points="91.95 63.57 149.57 66.36 149.57 126.67"/></g></g></svg>