<svg xmlns="http://www.w3.org/2000/svg" viewBox="0 0 1400 200"><defs><style>.cls-1{fill:#fac800;}.cls-2{fill:#f1b0ce;}.cls-3{fill:#00a6b6;}.cls-4{fill:#e86523;}.cls-5{fill:#3c4d9c;}</style></defs><title>Zasób 63</title><g id="Warstwa_2" data-name="Warstwa 2"><g id="icons"><polygon class="cls-1" points="144.97 20.84 0.27 82.41 144.97 143.98 289.68 82.41 144.97 20.84"/><polygon class="cls-2" points="434.38 20.84 289.68 82.41 434.38 143.98 579.09 82.41 434.38 20.84"/><polygon class="cls-3" points="723.8 20.84 579.09 82.41 723.8 143.98 868.5 82.41 723.8 20.84"/><polygon class="cls-4" points="1013.21 20.84 868.5 82.41 1013.21 143.98 1157.91 82.41 1013.21 20.84"/><polygon class="cls-1" points="1013.21 20.84 1062.17 0 964.24 0 1013.21 20.84"/><polygon class="cls-5" points="723.8 143.98 855.45 200 881.56 200 1013.21 143.98 868.5 82.41 723.8 143.98"/><polygon class="cls-2" points="1013.21 143.98 881.56 200 1144.86 200 1013.21 143.98"/><polygon class="cls-3" points="1170.97 200 1400 200 1400 185.42 1302.62 143.98 1170.97 200"/><polygon class="cls-1" points="1013.21 143.98 1144.86 200 1170.97 200 1302.62 143.98 1157.91 82.41 1013.21 143.98"/><polygon class="cls-2" points="1302.62 20.84 1351.59 0 1253.65 0 1302.62 20.84"/><polygon class="cls-4" points="1400 62.27 1400 0 1351.59 0 1302.62 20.84 1400 62.27"/><polygon class="cls-5" points="1400 62.27 1302.62 20.84 1157.91 82.41 1302.62 143.98 1400 102.55 1400 62.27"/><polygon class="cls-2" points="1400 102.55 1302.62 143.98 1400 185.42 1400 102.55"/><polygon class="cls-5" points="723.8 20.84 772.76 0 674.83 0 723.8 20.84"/><polygon class="cls-2" points="0 82.52 0 200 13.32 200 144.97 143.98 0.27 82.41 0 82.52"/><polygon class="cls-3" points="144.97 143.98 276.62 200 302.74 200 434.38 143.98 289.68 82.41 144.97 143.98"/><polygon class="cls-4" points="144.97 143.98 13.32 200 276.62 200 144.97 143.98"/><polygon class="cls-1" points="434.38 20.84 579.09 82.41 723.8 20.84 674.83 0 483.35 0 434.38 20.84"/><polygon class="cls-4" points="434.38 143.98 566.03 200 592.15 200 723.8 143.98 579.09 82.41 434.38 143.98"/><polygon class="cls-5" points="434.38 143.98 302.74 200 566.03 200 434.38 143.98"/><polygon class="cls-1" points="723.8 143.98 592.15 200 855.45 200 723.8 143.98"/><polygon class="cls-2" points="723.8 20.84 868.5 82.41 1013.21 20.84 964.24 0 772.76 0 723.8 20.84"/><polygon class="cls-3" points="1013.21 20.84 1157.91 82.41 1302.62 20.84 1253.65 0 1062.17 0 1013.21 20.84"/><polygon class="cls-3" points="144.97 20.84 193.94 0 96.01 0 144.97 20.84"/><polygon class="cls-4" points="0 82.3 0.27 82.41 144.97 20.84 96.01 0 0 0 0 82.3"/><polygon class="cls-4" points="434.38 20.84 483.35 0 385.42 0 434.38 20.84"/><polygon class="cls-5" points="144.97 20.84 289.68 82.41 434.38 20.84 385.42 0 193.94 0 144.97 20.84"/></g></g></svg>