<?xml version="1.0" standalone="no"?>
<!DOCTYPE svg PUBLIC "-//W3C//DTD SVG 1.1//EN" "http://www.w3.org/Graphics/SVG/1.1/DTD/svg11.dtd" >
<svg xmlns="http://www.w3.org/2000/svg">
<metadata>Generated by IcoMoon</metadata>
<defs>
<font id="Uniquanda" horiz-adv-x="1024">
<font-face units-per-em="1024" ascent="960" descent="-64" />
<missing-glyph horiz-adv-x="1024" />
<glyph unicode="&#x20;" horiz-adv-x="512" d="" />
<glyph unicode="&#xe900;" glyph-name="arrow_down" horiz-adv-x="821" d="M575.618 537.176v422.824h-330.591v-422.824h-245.027l410.6-601.176 410.6 601.176h-245.582z" />
<glyph unicode="&#xe901;" glyph-name="arrow_up" horiz-adv-x="821" d="M821.2 358.824l-410.6 601.176-410.6-601.176h245.027v-422.824h330.591v422.824h245.582z" />
<glyph unicode="&#xe902;" glyph-name="bold" horiz-adv-x="788" d="M333.37-64c-55.562 0-111.123 0-163.351 5.556-61.907 4.278-118.936 12.569-174.497 24.776l7.812-1.44v968.994c41.444 8.42 92.049 15.319 143.5 19.187l4.293 0.259q82.787 6.667 153.35 6.667c2.425 0.021 5.291 0.033 8.16 0.033 58.939 0 116.695-5.065 172.856-14.782l-5.998 0.859c51.591-7.899 97.993-24.261 139.866-47.74l-2.073 1.068c37.308-21.273 67.69-50.767 89.396-86.156l0.613-1.075c20.374-35.82 32.384-78.694 32.384-124.373 0-3.156-0.057-6.298-0.171-9.427l0.013 0.452c0.001-0.174 0.001-0.379 0.001-0.585 0-81.613-46.185-152.44-113.844-187.769l-1.169-0.556c54.52-16.833 99.375-51.419 128.905-96.879l0.554-0.91c21.711-38.952 34.494-85.448 34.494-134.928 0-1.789-0.017-3.574-0.050-5.354l0.004 0.267c0.335-5.015 0.526-10.871 0.526-16.771 0-90.723-45.111-170.909-114.126-219.351l-0.857-0.57c-86.271-50.777-190.050-80.77-300.834-80.77-13.989 0-27.867 0.478-41.617 1.419l1.858-0.102zM218.913 556.067h111.123c6.485-0.489 14.046-0.768 21.673-0.768 45.919 0 89.477 10.11 128.569 28.225l-1.893-0.787c26.973 16.683 44.674 46.1 44.674 79.651 0 2.276-0.081 4.534-0.242 6.77l0.017-0.3c0.19 2.171 0.298 4.698 0.298 7.25 0 33.43-18.568 62.523-45.954 77.528l-0.46 0.231c-35.104 15.733-76.083 24.897-119.203 24.897-5.757 0-11.477-0.163-17.153-0.486l0.786 0.036h-63.34c-21.351-0.33-41.968-1.734-62.27-4.164l2.819 0.275zM218.913 384.938v-258.361l55.562-4.445h63.896c4.912-0.222 10.672-0.349 16.462-0.349 52.327 0 102.241 10.334 147.812 29.072l-2.59-0.943c36.968 17.292 62.12 54.172 62.12 96.927 0 3.433-0.162 6.829-0.479 10.179l0.033-0.428c0.213 2.495 0.335 5.399 0.335 8.331 0 38.278-20.699 71.721-51.515 89.747l-0.491 0.266c-38.382 19.224-83.627 30.478-131.501 30.478-5.927 0-11.814-0.173-17.656-0.513l0.807 0.038z" />
<glyph unicode="&#xe903;" glyph-name="calendar" horiz-adv-x="1094" d="M829.003 879.893v80.107h-105.404v-80.107h-354.685v80.107h-105.404v-80.107h-263.51v-943.893h1093.567v943.893zM105.404 774.489h158.106v-77.999h105.404v77.999h353.63v-77.999h105.404v77.999h158.106v-150.728h-880.651zM988.163 41.404h-882.759v474.318h882.759zM262.983 441.412h104.35v-105.404h-104.35v105.404zM494.345 441.412h104.35v-105.404h-104.35v105.404zM726.234 441.412h104.35v-105.404h-104.35v105.404zM262.983 233.239h104.35v-105.404h-104.35v105.404zM494.345 233.239h104.35v-105.404h-104.35v105.404zM726.234 233.239h104.35v-105.404h-104.35v105.404z" />
<glyph unicode="&#xe904;" glyph-name="camera" horiz-adv-x="1145" d="M1145.13-64h-1145.13v841.183h280.394l68.977 182.817h448.631l68.977-181.135h280.394zM112.158 48.158h920.815v616.867h-247.869l-66.734 182.817h-291.61l-68.416-181.135h-246.186zM572.565 107.041c-143.707 0-260.205 116.498-260.205 260.206s116.498 260.206 260.206 260.206c143.708 0 260.206-116.498 260.206-260.206 0-0.197 0-0.394-0.001-0.591v0.030c-0.319-143.466-116.695-259.645-260.205-259.645 0 0-0.001 0-0.001 0v0zM572.565 514.734c-81.765 0-148.048-66.283-148.048-148.048s66.283-148.048 148.048-148.048c81.765 0 148.048 66.283 148.048 148.048v0c0 81.765-66.283 148.048-148.048 148.048v0z" />
<glyph unicode="&#xe905;" glyph-name="certificate" horiz-adv-x="859" d="M673.131 731.556v228.444h-673.131v-779.99h445.108v-244.010l168.283 155.661 168.283-155.661v375.27c48.679 45.167 79.043 109.489 79.043 180.903 0 115.228-79.053 211.993-185.882 239.018l-1.704 0.365zM84.141 264.151v611.707h504.848v-138.412c-27.87-3.061-53.346-10.194-76.896-20.837l1.59 0.643v21.456h-354.235v-84.141h267.99c-30.598-34.030-51.686-77.181-58.74-124.902l-0.159-1.31h-210.353v-84.141h210.353c10.928-52.636 37.386-97.871 74.298-131.949l0.167-0.152v-47.119zM695.849 129.104l-84.141 77.41-84.141-77.41v130.84c25.034-9.327 53.957-14.724 84.141-14.725v0c0.436-0.003 0.952-0.005 1.468-0.005 29.679 0 58.096 5.401 84.322 15.274l-1.649-0.545zM611.707 329.361c-0.125 0-0.272-0.001-0.42-0.001-89.919 0-162.813 72.894-162.813 162.813s72.894 162.813 162.813 162.813c89.919 0 162.813-72.894 162.813-162.813 0-0.148 0-0.295-0.001-0.443v0.023c0-0.126 0.001-0.274 0.001-0.423 0-89.391-72.227-161.913-161.506-162.39h-0.046zM596.141 485.443l-44.595 49.223-62.265-56.375 115.274-127.053 134.205 189.739-68.575 48.802-74.044-104.335z" />
<glyph unicode="&#xe906;" glyph-name="check" horiz-adv-x="1211" d="M536.554-64l-536.554 589.906 89.729 81.847 434.7-478.958 588.088 831.204 98.823-70.328-674.785-953.672z" />
<glyph unicode="&#xe907;" glyph-name="close" d="M1024 867.387l-93.27 92.613-419.058-419.058-419.058 419.058-92.613-92.613 419.058-419.058-419.058-419.058 92.613-93.27 419.058 419.058 419.058-419.058 93.27 93.27-419.058 419.058 419.058 419.058z" />
<glyph unicode="&#xe908;" glyph-name="dark_mode" horiz-adv-x="1020" d="M235.581 737.754c-8.681-34.71-13.663-74.557-13.663-115.568 0-273.637 221.762-495.48 495.369-495.609h0.012c13.89 0 27.225 0 41.116 0-67.508-53.404-153.874-85.668-247.776-85.668-221.552 0-401.155 179.603-401.155 401.155 0 12.751 0.595 25.364 1.759 37.811l-0.12-1.593c8.179 102.842 54.327 193.564 124.25 259.279l0.208 0.194zM513.389 960c-0.585 0.002-1.277 0.004-1.969 0.004-282.923 0-512.278-229.355-512.278-512.278s229.355-512.278 512.278-512.278c128.54 0 246.023 47.342 335.963 125.541l-0.625-0.531c94.506 81.724 158.315 196.718 173.135 326.589l0.217 2.336c-15.69-20.749-32.842-38.958-51.758-55.169l-0.47-0.393c-66.438-57.986-153.93-93.345-249.68-93.345-0.317 0-0.635 0-0.952 0.001h0.049c-0.284-0.001-0.619-0.001-0.955-0.001-212.039 0-383.931 171.892-383.931 383.931 0 116.49 51.88 220.862 133.795 291.273l0.508 0.427c18.157 15.868 38.335 30.383 59.821 42.898l1.852 0.996z" />
<glyph unicode="&#xe909;" glyph-name="delete" horiz-adv-x="1011" d="M1011.098 777.467h-373.667v182.533h-263.765v-182.533h-373.667v-95.567h128.060l37.749-745.9h679.959l37.749 745.9h127.582zM469.234 864.433h72.631v-86.966h-72.631zM755.935 31.567h-499.337l-32.971 650.333h563.845zM346.908 582.033h95.567v-486.436h-95.567v486.436zM568.623 582.033h95.567v-486.436h-95.567v486.436z" />
<glyph unicode="&#xe90a;" glyph-name="edit" d="M822.138 960l-690.406-690.406-131.732-333.594 331.698 131.258 692.302 690.406zM890.373 757.664l-535.93-535.456-70.13 68.235 537.825 535.456zM168.218 104.218l44.068 112.304 7.108 6.634 68.235-68.709-7.108-7.108z" />
<glyph unicode="&#xe90b;" glyph-name="help" d="M497.457 588.913c-0.075 0-0.165 0-0.254 0-14.368 0-28.266-2.014-41.426-5.776l1.061 0.259c-16.342-4.854-30.472-10.821-43.764-18.125l1.139 0.574-25.575 68.2c15.97 10.762 34.504 19.354 54.348 24.768l1.315 0.306c18.653 5.082 40.073 8.009 62.174 8.024h0.009c1.538 0.049 3.347 0.076 5.163 0.076 20.983 0 41.101-3.703 59.737-10.492l-1.213 0.386c15.452-6.197 28.636-15.034 39.611-26.071l0.005-0.005c8.714-9.502 15.561-20.874 19.859-33.429l0.199-0.671c3.271-10.607 5.269-22.825 5.514-35.473l0.002-0.132c0.012-0.535 0.018-1.166 0.018-1.799 0-10.501-1.844-20.571-5.227-29.904l0.193 0.611c-3.532-9.954-7.936-18.569-13.297-26.482l0.259 0.405c-5.557-8.668-11.506-16.211-18.108-23.126l0.055 0.058-19.557-20.56q-7.522-6.519-15.044-15.044c-5.121-5.184-9.889-10.748-14.248-16.633l-0.295-0.417c-3.624-5.415-7.137-11.665-10.167-18.184l-0.364-0.872c-2.42-5.931-3.881-12.806-4.011-20.006l-0.001-0.053v-7.522c-0.127-1.278-0.2-2.762-0.2-4.262s0.072-2.985 0.214-4.448l-0.015 0.186h-78.731c-0.261 2.033-0.409 4.384-0.409 6.77s0.149 4.737 0.438 7.045l-0.028-0.275c-0.106 1.947-0.167 4.226-0.167 6.519s0.061 4.572 0.18 6.835l-0.013-0.316c-0.007 0.446-0.012 0.971-0.012 1.498 0 10.393 1.655 20.399 4.716 29.769l-0.191-0.677c2.793 9.541 6.552 17.862 11.286 25.514l-0.254-0.441c4.924 8.339 10.227 15.557 16.164 22.198l-0.117-0.133c6.018 7.021 12.035 13.54 18.554 20.059s17.551 18.053 25.073 27.079c6.991 8.386 11.31 19.213 11.533 31.043l0.001 0.048c0.003 0.173 0.005 0.376 0.005 0.581 0 9.579-4.263 18.163-10.996 23.956l-0.042 0.035c-7.643 5.694-17.271 9.116-27.699 9.116-2.614 0-5.178-0.215-7.676-0.629l0.271 0.037zM553.622 288.031c0.071-1.002 0.112-2.17 0.112-3.349 0-15.039-6.62-28.531-17.105-37.722l-0.057-0.049c-10.446-8.759-24.034-14.080-38.864-14.080s-28.418 5.32-38.958 14.157l0.094-0.077c-10.519 10.526-17.025 25.063-17.025 41.12s6.506 30.595 17.026 41.121v0c10.446 8.759 24.034 14.080 38.864 14.080s28.418-5.32 38.958-14.157l-0.094 0.077c9.568-9.148 15.515-22.013 15.515-36.268 0-2.419-0.171-4.798-0.502-7.125l0.031 0.267zM512-64c-282.77 0-512 229.23-512 512s229.23 512 512 512c282.77 0 512-229.23 512-512v0c-0.285-282.655-229.345-511.714-511.972-512h-0.028zM512 859.706c-227.379 0-411.706-184.327-411.706-411.706s184.327-411.706 411.706-411.706c227.379 0 411.706 184.327 411.706 411.706v0c-0.285 227.265-184.442 411.421-411.679 411.706h-0.027z" />
<glyph unicode="&#xe90c;" glyph-name="hide" horiz-adv-x="2306" d="M2310.469 825.993l-131.235 134.007c-369.675-354.888-752.289-521.242-1127.509-496.289-545.271 34.195-902.931 482.426-906.628 487.047l-145.097-114.599c140.693-165.498 310.351-301.515 501.872-401.351l9.204-4.367-184.838-326.238 159.884-92.419 195.928 344.722c104.172-39.505 224.827-66.803 350.428-76.433l4.46-0.275h27.726v-342.874h184.838v346.57c138.414 14.879 265.097 47.494 383.713 95.811l-9.417-3.392 208.866-362.282 159.884 92.419-200.549 344.722c198.042 105.967 368.503 230.743 519.186 375.907l-0.717-0.687z" />
<glyph unicode="&#xe90d;" glyph-name="home" horiz-adv-x="1144" d="M1144.297 448.74l-571.902 511.26-572.395-511.26 65.571-73.46 57.19 49.302v-490.061h898.773v491.54l57.19-49.302zM506.823 48.901v253.905h130.65v-253.905zM922.931 34.604h-186.854v366.806h-327.857v-366.806h-186.854v481.679l351.029 313.56 350.536-313.56z" />
<glyph unicode="&#xe90e;" glyph-name="italic" horiz-adv-x="371" d="M129.458-64h-129.458l173.908 722.301h129.458zM277.808 790.537c-1.492-0.106-3.234-0.166-4.989-0.166-19.513 0-37.286 7.451-50.629 19.664l0.057-0.051c-13.472 12.608-21.867 30.498-21.867 50.348 0 1.835 0.072 3.653 0.213 5.452l-0.015-0.238c0.205 27.462 12.381 52.040 31.562 68.804l0.108 0.092c16.121 15.804 38.224 25.559 62.605 25.559 0.063 0 0.126 0 0.189 0h-0.010c1.077 0.054 2.339 0.084 3.609 0.084 20.036 0 38.289-7.629 52.014-20.141l-0.061 0.055c13.755-13.173 22.303-31.686 22.303-52.197 0-1.184-0.028-2.361-0.085-3.53l0.006 0.165c0.041-0.99 0.065-2.151 0.065-3.318 0-25.43-11.166-48.252-28.863-63.831l-0.094-0.081c-16.822-16.493-39.887-26.673-65.33-26.673-0.277 0-0.554 0.001-0.831 0.004h0.042z" />
<glyph unicode="&#xe90f;" glyph-name="Light_mode" d="M511.722 571.069c0.656 0.012 1.428 0.019 2.203 0.019 69.043 0 125.014-55.97 125.014-125.014s-55.97-125.014-125.014-125.014c-69.043 0-125.014 55.97-125.014 125.014 0 0.775 0.007 1.548 0.021 2.319l-0.002-0.116c1.224 67.318 55.473 121.567 122.675 122.789l0.116 0.002zM511.722 682.192c-130.415 0-236.137-105.722-236.137-236.137s105.722-236.137 236.137-236.137c130.415 0 236.137 105.722 236.137 236.137v0c0 130.415-105.722 236.137-236.137 236.137v0zM456.161 960h111.123v-185.020h-111.123v185.020zM456.161 121.020h111.123v-185.020h-111.123v185.020zM838.98 503.839h185.020v-111.123h-185.020v111.123zM0 503.839h185.020v-111.123h-185.020v111.123zM110.133 770.872l78.59 78.562 130.806-130.852-78.59-78.562-130.806 130.852zM703.742 177.328l78.59 78.562 130.806-130.852-78.59-78.562-130.806 130.852zM704.025 718.759l130.829 130.829 78.576-78.576-130.829-130.829-78.576 78.576zM110.79 125.543l130.829 130.829 78.576-78.576-130.829-130.829-78.576 78.576z" />
<glyph unicode="&#xe910;" glyph-name="link" horiz-adv-x="1010" d="M433.694 303.194l-74.21 75.656c-26.776 26.845-43.332 63.894-43.332 104.809s16.556 77.965 43.335 104.813l371.528 371.528 280.937-278.528-221.184-221.184-67.945 66.018 152.757 153.239-144.565 142.155-303.104-301.176c-9.341-9.477-15.109-22.497-15.109-36.864s5.768-27.387 15.116-36.87l75.65-75.65zM278.528-64l-278.528 278.528 221.184 221.184 67.945-68.427-152.757-152.757 144.565-144.565 303.104 303.104c9.429 9.347 15.266 22.303 15.266 36.623s-5.838 27.276-15.263 36.619l-0.004 0.004-78.065 79.992 67.945 67.945 76.137-75.656c26.804-26.922 43.374-64.051 43.374-105.050s-16.57-78.129-43.379-105.056l0.005 0.005z" />
<glyph unicode="&#xe911;" glyph-name="linkv2" d="M375.521 382.068l526.505 526.505 70.814-70.814-526.505-526.505-70.814 70.814zM1014.486 588.956l-100.147 2.504 7.010 265.889-265.889-7.010-2.504 100.147 371.044 9.514-9.514-371.044zM921.85-64h-921.85v921.85h494.224v-100.147h-394.077v-721.557h721.557v409.6h100.147v-509.747z" />
<glyph unicode="&#xe912;" glyph-name="list_number" horiz-adv-x="1362" d="M390.095 927.492h971.544v-147.763h-971.544v147.763zM390.095 521.882h971.544v-147.763h-971.544v147.763zM390.095 116.271h971.544v-147.763h-971.544v147.763zM6.649 917.149l17.732 8.127 18.47 10.343c6.459 3.839 12.009 7.741 17.241 12.018l-0.249-0.197 14.038 12.56h30.291v-204.652h-42.851v147.763c-5.727-3.955-12.276-7.657-19.152-10.761l-0.796-0.322-21.426-5.911zM143.33 498.24c0-0.049 0-0.107 0-0.166 0-7.69-1.632-14.998-4.568-21.599l0.135 0.339c-3.294-7.616-7.255-14.184-11.963-20.133l0.142 0.185c-4.984-6.875-10.322-12.916-16.184-18.405l-0.070-0.065-36.941-36.941-8.127-9.605c-1.613-2.338-3.097-5.008-4.315-7.821l-0.118-0.306h86.442v-36.941h-135.203s0 5.172 0 8.866v6.649c-0.021 0.575-0.032 1.25-0.032 1.927 0 8.677 1.918 16.906 5.352 24.286l-0.148-0.355c2.964 8.472 6.969 15.813 11.963 22.358l-0.142-0.194c5.313 7.096 10.639 13.359 16.32 19.279l-0.066-0.070 18.47 17.732 9.605 12.56 11.082 11.821c2.654 3.436 5.109 7.309 7.194 11.402l0.194 0.419c0.528 1.771 0.831 3.805 0.831 5.911s-0.304 4.14-0.87 6.062l0.038-0.152c1.252 2.741 1.982 5.946 1.982 9.321 0 4.484-1.289 8.667-3.516 12.199l0.056-0.095c-2.552 0.642-5.481 1.011-8.496 1.011s-5.945-0.369-8.745-1.063l0.249 0.052c-2.22 0.528-4.769 0.831-7.388 0.831s-5.168-0.303-7.613-0.876l0.225 0.044-12.56-5.911-10.343-6.649-5.911-5.172-22.165 30.291c8.3 7.5 17.788 13.916 28.099 18.898l0.715 0.311c10.85 5.005 23.53 7.984 36.89 8.127h0.051c0.788 0.024 1.714 0.038 2.644 0.038 10.145 0 19.907-1.636 29.039-4.658l-0.652 0.187c8.28-2.144 15.472-5.981 21.498-11.143l-0.072 0.060c5.779-4.741 10.141-11.011 12.482-18.193l0.078-0.277c2.808-6.999 4.437-15.113 4.437-23.608 0-0.272-0.002-0.543-0.005-0.815v0.041zM59.844-64h-33.986l-15.515 3.694h-10.343l8.866 36.941 19.209-6.649c4.442-0.802 9.556-1.261 14.776-1.261s10.334 0.459 15.302 1.338l-0.525-0.077c1.314-0.128 2.84-0.2 4.383-0.2 9.622 0 18.583 2.83 26.096 7.702l-0.187-0.114c5.917 4.914 9.656 12.272 9.656 20.504 0 0.584-0.019 1.164-0.056 1.738l0.004-0.078c-0.004 4.913-1.377 9.503-3.759 13.413l0.065-0.114c-2.264 3.852-5.544 6.894-9.473 8.808l-0.131 0.058c-3.015 2.789-6.41 5.241-10.079 7.255l-0.265 0.133h-37.68v35.463h31.769l11.082 8.866c3.171 1.984 5.69 4.74 7.336 8.012l0.052 0.115c0.568 1.767 0.896 3.801 0.896 5.911s-0.328 4.143-0.935 6.052l0.039-0.141c0.402 1.553 0.634 3.335 0.634 5.172s-0.231 3.619-0.666 5.32l0.032-0.148c-1.855 2.594-4.056 4.794-6.565 6.592l-0.085 0.058h-18.47c-3.442 0.568-7.409 0.893-11.452 0.893s-8.009-0.325-11.876-0.949l0.424 0.057c-7.718-2.931-14.29-6.161-20.507-9.918l0.559 0.314-15.515 32.508 11.082 5.911 14.038 5.911 16.993 2.216c2.773 0.369 5.98 0.579 9.235 0.579s6.462-0.211 9.606-0.619l-0.371 0.039c4.658 0.602 10.047 0.945 15.515 0.945s10.857-0.343 16.144-1.010l-0.629 0.065c8.557-2.846 15.94-7.131 22.241-12.625l-0.077 0.065c5.286-5.109 9.535-11.254 12.425-18.111l0.134-0.359c2.372-5.854 3.748-12.643 3.748-19.754 0-0.848-0.020-1.691-0.058-2.529l0.004 0.119c-0.025-8.743-2.496-16.904-6.763-23.841l0.114 0.199c-4.271-7.671-10.592-13.754-18.226-17.619l-0.245-0.112c10.541-3.467 19.208-10.222 25.010-19.031l0.11-0.178c5.576-8.131 8.905-18.184 8.905-29.014 0-0.709-0.014-1.415-0.043-2.117l0.003 0.101c0.006-0.308 0.009-0.672 0.009-1.036 0-8.979-1.907-17.512-5.337-25.217l0.157 0.395c-3.245-8.269-8.298-15.221-14.7-20.624l-0.076-0.063c-7.073-6.055-15.437-10.844-24.598-13.887l-0.522-0.15c-10.994-3.479-23.663-5.618-36.789-5.908l-0.152-0.003z" />
<glyph unicode="&#xe913;" glyph-name="list_point" horiz-adv-x="1453" d="M416.542 960h1037.411v-157.781h-1037.411v157.781zM416.542 526.891h1037.411v-157.781h-1037.411v157.781zM416.542 93.781h1037.411v-157.781h-1037.411v157.781zM0 960h205.904v-157.781h-205.904v157.781zM0 526.891h205.904v-157.781h-205.904v157.781zM0 93.781h205.904v-157.781h-205.904v157.781z" />
<glyph unicode="&#xe914;" glyph-name="load_more" horiz-adv-x="1553" d="M1013.98 960l-138.27-145.284 280.548-266.521h-955.867v381.746h-200.391v-582.137h1156.258l-280.548-266.521 138.27-145.284 539.053 512-539.053 512z" />
<glyph unicode="&#xe915;" glyph-name="location" horiz-adv-x="646" d="M323.062 490.444c-74.744 0-135.337 60.592-135.337 135.337s60.592 135.337 135.337 135.337c74.744 0 135.337-60.592 135.337-135.337v0c0-74.744-60.592-135.337-135.337-135.337v0zM323.062 664.102c-21.164 0-38.321-17.157-38.321-38.321s17.157-38.321 38.321-38.321c21.164 0 38.321 17.157 38.321 38.321v0c0 21.164-17.157 38.321-38.321 38.321v0zM323.062-64l-39.291 53.844c-29.105 38.321-283.771 388.063-283.771 582.094 0 236.718 126.605 388.063 323.062 388.063s322.577-151.344 322.577-388.063c0-194.031-254.666-543.773-283.771-582.094zM323.062 862.984c-209.554 0-226.046-220.711-226.046-291.047 0-116.419 139.217-344.405 226.046-470.526 86.344 126.12 225.561 354.107 225.561 472.951 0 67.911-15.037 288.622-225.561 288.622z" />
<glyph unicode="&#xe916;" glyph-name="lock" horiz-adv-x="789" d="M788.96-64h-788.96v726.929h788.96zM96.924 32.924h595.112v533.081h-595.112zM720.144 612.528h-96.924c0.097 2.567 0.153 5.582 0.153 8.61 0 129.104-100.969 234.626-228.249 241.908l-0.644 0.029c-127.924-7.312-228.893-112.833-228.893-241.938 0-3.028 0.056-6.043 0.166-9.044l-0.013 0.434h-96.924c-0.068 2.533-0.107 5.515-0.107 8.506 0 182.619 144.3 331.534 325.099 338.944l0.672 0.022c181.47-7.432 325.771-156.347 325.771-338.966 0-2.991-0.039-5.973-0.116-8.945l0.009 0.439zM394.48 205.933c-0.144 0-0.314-0.001-0.484-0.001-83.774 0-151.686 67.912-151.686 151.686s67.912 151.686 151.686 151.686c83.774 0 151.686-67.912 151.686-151.686 0-0.17 0-0.34-0.001-0.51v0.026c-0.275-83.396-67.806-150.927-151.175-151.201h-0.026zM394.48 411.896c-0.144 0.001-0.314 0.002-0.485 0.002-30.244 0-54.762-24.518-54.762-54.762s24.518-54.762 54.762-54.762c30.243 0 54.761 24.517 54.762 54.76v0c0 0.001 0 0.001 0 0.002 0 30.074-24.242 54.486-54.251 54.76h-0.026zM354.741 285.41h96.924v-167.194h-96.924v167.194z" />
<glyph unicode="&#xe917;" glyph-name="login" horiz-adv-x="1055" d="M543.091-64c-0.050 0-0.109 0-0.168 0-141.426 0-269.42 57.51-361.872 150.42l-0.021 0.021 69.704 71.209c74.531-74.664 177.565-120.854 291.388-120.854 227.379 0 411.706 184.327 411.706 411.706s-184.327 411.706-411.706 411.706c-113.823 0-216.858-46.19-291.382-120.848l-0.006-0.006-69.704 70.206c92.652 92.641 220.643 149.939 362.017 149.939 282.77 0 512-229.23 512-512 0-282.754-229.205-511.975-511.954-512h-0.002zM0 498.147h604.27v-100.294h-604.27v100.294zM457.34 191.749l-69.203 72.713 193.567 183.538-193.567 183.538 69.203 72.713 269.79-256.251-269.79-256.251z" />
<glyph unicode="&#xe918;" glyph-name="logout" horiz-adv-x="1278" d="M512-64c-0.135 0-0.296 0-0.457 0-282.77 0-512 229.23-512 512s229.23 512 512 512c141.623 0 269.816-57.501 362.507-150.43l0.011-0.011-71.71-70.206c-74.531 74.664-177.565 120.854-291.388 120.854-227.379 0-411.706-184.327-411.706-411.706s184.327-411.706 411.706-411.706c113.823 0 216.858 46.19 291.382 120.848l0.006 0.006 71.209-70.707c-92.358-92.993-220.198-150.645-361.503-150.942h-0.056zM551.115 498.147h604.27v-100.294h-604.27v100.294zM1008.454 191.749l-69.203 72.713 193.567 183.538-193.567 183.538 69.203 72.713 269.79-256.251-269.79-256.251z" />
<glyph unicode="&#xe919;" glyph-name="mail" horiz-adv-x="1525" d="M0 960v-1024h1524.805v1024zM1247.907 810.729l-485.878-417.213-485.878 417.213zM149.271 85.271v637.388l612.758-522.449 613.504 522.449v-637.388z" />
<glyph unicode="&#xe91a;" glyph-name="menu" horiz-adv-x="1403" d="M0 960h1403.146v-152.268h-1403.146v152.268zM0 524.514h1031.613v-152.268h-1031.613v152.268zM0 88.268h1403.146v-152.268h-1403.146v152.268z" />
<glyph unicode="&#xe91b;" glyph-name="notification" horiz-adv-x="740" d="M740.149 522.524c-0.519 186.266-138.285 340.199-317.469 366.024l-1.991 0.235v71.217h-101.739v-71.217c-180.957-26.291-318.469-180.143-318.951-366.208v-385.641h216.195v-46.8c0-84.985 68.894-153.88 153.88-153.88s153.88 68.894 153.88 153.88v0 46.8h216.195zM422.216 90.134c0-28.797-23.344-52.141-52.141-52.141s-52.141 23.344-52.141 52.141v0 46.8h104.282zM638.41 238.673h-536.672v283.851c-0.162 3.487-0.254 7.576-0.254 11.686 0 148.338 120.252 268.59 268.59 268.59s268.59-120.252 268.59-268.59c0-4.11-0.092-8.199-0.275-12.264l0.021 0.578z" />
<glyph unicode="&#xe91c;" glyph-name="picture" horiz-adv-x="1287" d="M0 960v-1024h1286.577v1024zM1185.391 858.814v-770.53l-279.273 351.115-197.818-204.901-271.178 371.352-335.937-493.787v746.751zM730.055 37.186h-556.522l266.625 392.601zM769.012 150.514l130.024 134.577 197.818-248.917h-243.858zM726.008 466.213c91.369 0 165.439 74.069 165.439 165.439s-74.069 165.439-165.439 165.439c-91.369 0-165.439-74.069-165.439-165.439v0c0.287-91.254 74.185-165.152 165.411-165.439h0.027zM726.008 695.905c35.486 0 64.253-28.767 64.253-64.253s-28.767-64.253-64.253-64.253c-35.486 0-64.253 28.767-64.253 64.253v0c0 35.486 28.767 64.253 64.253 64.253v0z" />
<glyph unicode="&#xe91d;" glyph-name="plus" d="M1024 514.012h-445.988v445.988h-131.366v-445.988h-446.645v-131.366h446.645v-446.645h131.366v446.645h445.988v131.366z" />
<glyph unicode="&#xe91e;" glyph-name="popular" horiz-adv-x="1076" d="M205.666-64l64.947 370.74-270.613 262.495 371.822 54.123 166.156 336.643 165.615-337.184 371.822-54.123-270.613-262.495 63.323-370.199-330.148 175.357zM537.979 233.674l188.888-99.586-35.721 210.537 152.626 148.837-211.078 30.85-94.715 191.053-94.173-191.053-211.078-30.85 152.626-148.837-36.262-210.537z" />
<glyph unicode="&#xe91f;" glyph-name="premium" horiz-adv-x="1169" d="M788.16 397.187l-199.387 562.813-202.149-569.441-386.624 368.397 110.464-822.956h948.332l110.464 822.956zM794.787 46.464h-412.030l206.015 582.145zM206.015 46.464l-55.232 416.449 196.073-186.684-81.191-229.765zM962.14 46.464h-50.261l-83.4 236.393 189.446 180.056z" />
<glyph unicode="&#xe920;" glyph-name="profile" horiz-adv-x="1046" d="M714.639 422.44c68.258 55.999 111.465 140.354 111.465 234.801 0 167.362-135.674 303.037-303.037 303.037s-303.037-135.674-303.037-303.037c0-94.447 43.207-178.802 110.934-234.378l0.531-0.423c-195.64-78.605-331.295-266.655-331.496-486.415v-0.025h105.404c-0.168 4.425-0.264 9.62-0.264 14.839 0 230.815 187.112 417.927 417.927 417.927s417.927-187.112 417.927-417.927c0-5.218-0.096-10.415-0.285-15.587l0.022 0.748h105.404c-0.201 219.784-135.856 407.835-327.978 485.188l-3.518 1.251zM325.698 656.963c0 109.149 88.483 197.633 197.633 197.633s197.633-88.483 197.633-197.633c0-109.149-88.483-197.633-197.633-197.633v0c-109.149 0-197.633 88.483-197.633 197.633v0z" />
<glyph unicode="&#xe921;" glyph-name="quote" horiz-adv-x="1136" d="M111.183 693.716l183.453 188.456-79.496 77.828-215.14-222.367v-801.633h522.562v523.674h-411.379zM411.379 47.183h-300.195v301.307h300.195zM722.693 459.674v234.041l183.453 188.456-77.828 77.828-216.808-222.367v-801.633h522.562v523.674zM1022.888 48.295h-300.195v300.195h300.195z" />
<glyph unicode="&#xe922;" glyph-name="ranking" horiz-adv-x="1197" d="M971.873 586.588h225.049v373.412h-1196.922v-373.412h225.551c45.11-190.465 131.321-332.311 242.592-393.962v-156.382h-88.215v-100.245h437.568v100.245h-88.215v156.382c110.77 61.651 196.981 203.497 242.592 393.962zM1096.677 859.755v-172.922h-105.257c8.202 50.892 13.618 110.634 15.009 171.37l0.028 1.552zM100.245 686.833v172.922h90.22c1.992-63.033 7.39-122.749 16.066-181.397l-1.030 8.475zM290.209 859.755h616.505c-12.029-377.923-162.396-601.468-308.253-601.468s-297.727 223.546-308.253 601.468zM629.036 36.245h-60.648v121.797c9.116-1.593 19.614-2.503 30.324-2.503s21.208 0.91 31.42 2.658l-1.096-0.155z" />
<glyph unicode="&#xe923;" glyph-name="redo" horiz-adv-x="2058" d="M1872.949 611.921l-132.553-298.498c-54.258 194.491-168.62 357.098-321.473 470.885l-2.322 1.652c-145.682 109.21-329.482 174.878-528.619 174.878-291.84 0-550.739-141.040-712.253-358.677l-1.69-2.383c-108.693-144.782-174.059-327.51-174.059-525.506 0-47.018 3.686-93.175 10.785-138.198l-0.647 4.984 202.372 30.356c-4.853 30.611-7.625 65.907-7.625 101.852 0 341.537 250.315 624.611 577.495 675.771l3.854 0.496c30.652 4.932 65.99 7.75 101.985 7.75 152.26 0 292.743-50.42 405.665-135.474l-1.721 1.242c110.234-81.973 193.902-194.049 239.364-324.064l1.458-4.79-226.656 116.364-92.079-180.111 579.794-294.451 264.095 593.96z" />
<glyph unicode="&#xe924;" glyph-name="report" horiz-adv-x="1182" d="M1182.163-64h-1182.163l591.082 1024zM165.331 31.567h851.502l-425.751 737.299zM543.298 553.363h95.567v-281.445h-95.567v281.445zM543.298 223.657h95.567v-99.867h-95.567v99.867z" />
<glyph unicode="&#xe925;" glyph-name="safety" horiz-adv-x="893" d="M397.541 606.085h98.037v-351.464h-98.037v351.464zM270.583 479.127h351.464v-98.037h-351.464v98.037zM445.58-64c-10.013 0.122-19.608 1.726-28.635 4.603l0.694-0.191c-136.67 39.605-250.832 120.567-331.168 228.246l-1.179 1.652c-52.937 74.066-84.815 166.349-85.292 266.054v0.117c0 33.333 0 71.567 0 107.351v89.704c0 39.705 0 81.371 0 119.115-0.072 1.157-0.113 2.51-0.113 3.873 0 29.32 18.928 54.219 45.23 63.145l0.47 0.138c124.998 42.156 248.525 91.175 373.522 135.292 8.215 3.264 17.734 5.156 27.696 5.156s19.48-1.892 28.217-5.337l-0.522 0.181 372.052-134.801c26.997-8.752 46.175-33.677 46.175-63.080 0-1.261-0.035-2.514-0.105-3.758l0.008 0.173v-60.783c0-74.999 0-149.507 0-224.506 0.239-5.762 0.374-12.524 0.374-19.317 0-187.36-103.359-350.58-256.168-435.75l-2.535-1.297c-43.502-27.026-93.628-50.458-146.541-67.725l-4.927-1.391c-11.040-3.943-23.786-6.421-37.050-6.857l-0.205-0.005zM98.037 640.398v0-98.037c0-34.803 0-70.097 0-104.9-0.001-0.227-0.001-0.495-0.001-0.763 0-79.421 25.151-152.969 67.922-213.111l-0.766 1.134c69.334-92.243 166.361-160.345 278.625-192.23l3.722-0.904s0 0 5.882 2.451c49.611 16.050 92.596 36.155 132.481 60.797l-2.581-1.485c126.926 69 211.636 201.335 211.636 353.456 0 6.023-0.133 12.015-0.396 17.973l0.030-0.848c0 75.979 0 151.468 0 226.956v43.627l-348.523 127.449-348.033-127.449c0-31.862 0-63.234 0-94.116z" />
<glyph unicode="&#xe926;" glyph-name="search" d="M1024 8.234l-290.973 290.464c54.090 68.934 86.744 156.931 86.744 252.554 0 227.002-184.022 411.024-411.024 411.024s-411.024-184.022-411.024-411.024c0-227.002 184.022-411.024 411.024-411.024 95.624 0 183.62 32.654 253.448 87.42l-0.894-0.675 290.973-290.973zM191.777 332.272c-55.788 55.786-90.293 132.854-90.293 217.982 0 170.252 138.016 308.268 308.268 308.268s308.268-138.016 308.268-308.268c0-85.128-34.505-162.196-90.293-217.982v0c-55.841-55.661-132.889-90.076-217.975-90.076s-162.134 34.415-217.983 90.084l0.008-0.008z" />
<glyph unicode="&#xe927;" glyph-name="settings" horiz-adv-x="1042" d="M519.522 253.43c-106.35 0-192.564 86.214-192.564 192.564s86.214 192.564 192.564 192.564c106.35 0 192.564-86.214 192.564-192.564v0c0-106.35-86.214-192.564-192.564-192.564v0zM519.522 537.763c-50.959-0.001-92.269-41.311-92.269-92.27s41.311-92.27 92.27-92.27c50.959 0 92.27 41.311 92.27 92.27 0 0.176 0 0.352-0.001 0.528v-0.027c0 0 0 0.001 0 0.001 0 50.683-41.086 91.769-91.769 91.769-0.176 0-0.352 0-0.528-0.001h0.027zM674.977-64h-306.899v132.388c-37.337 15.719-69.546 34.727-98.77 57.4l0.983-0.734-115.839-67.698-154.452 266.782 115.839 66.695c-2.441 16.483-3.895 35.599-4.011 55.031l-0.001 0.13c0.116 20.093 1.57 39.736 4.278 58.977l-0.267-2.311-115.839 67.698 153.45 265.779 118.347-68.2c27.3 21.549 58.563 39.923 92.188 53.72l2.59 0.94v137.403h306.899v-137.403c35.81-14.921 66.709-33.098 94.695-54.847l-0.92 0.688 119.851 69.203 153.45-265.779-118.347-68.2c2.845-17.316 4.485-37.29 4.513-57.641v-0.027c-0.033-17.717-1.308-35.106-3.742-52.122l0.232 1.975 118.347-68.2-153.45-270.292-116.341 66.695c-27.952-21.953-59.829-40.954-94.011-55.609l-2.773-1.057zM468.372 36.294h106.311v105.81l35.604 11.032c47.235 14.739 87.763 39.235 120.94 71.291l-0.086-0.083 27.079 26.076 94.276-53.657 50.147 92.27-93.775 53.657 8.024 36.106c4.731 20.173 7.469 43.351 7.522 67.16v0.037c-0.22 25.537-3.315 50.241-8.976 73.949l0.451-2.239-9.026 36.106 95.781 55.162-50.147 91.769-95.279-55.162-27.581 25.073c-33.243 31.035-73.776 54.707-118.724 68.154l-2.13 0.547-35.604 11.032v109.32h-106.311v-109.32l-36.106-11.032c-46.537-14.363-86.536-38.164-119.491-69.335l0.141 0.132-27.079-25.073-94.276 54.159-53.156-90.264 93.273-55.663-8.525-36.607c-5.241-21.177-8.338-45.534-8.524-70.584l-0.001-0.123c0.193-24.648 3.29-48.481 8.965-71.294l-0.44 2.091 8.024-36.607-91.769-53.156 53.156-91.769 91.769 53.156 27.581-25.575c33.619-31.796 74.641-56.13 120.188-70.133l2.171-0.574 35.604-10.531z" />
<glyph unicode="&#xe928;" glyph-name="show" horiz-adv-x="2012" d="M975.64-64c-26.099 0-51.43 0-76.762 0-521.211 37.613-844.378 444.45-861.265 460.57l-37.613 51.43 37.613 47.592c13.817 17.655 340.054 424.492 861.265 464.408 355.406 22.261 713.115-129.727 1053.937-455.964l59.106-56.036-59.106-55.268c-318.561-303.208-647.868-456.732-977.175-456.732zM201.115 448c181.228-193.696 428.003-324.089 704.784-355.686l5.261-0.488c290.927-19.19 584.156 99.79 875.082 356.174-290.927 257.151-586.459 377.667-876.618 358.477-281.86-32.611-528.189-163.842-707.835-357.74l-0.675-0.737zM997.901 133.277c-174.24 0.001-315.489 141.25-315.489 315.49s141.25 315.49 315.49 315.49c174.24 0 315.49-141.25 315.49-315.49 0-0.27 0-0.54-0.001-0.809v0.042c-0.437-173.91-141.519-314.723-315.489-314.723 0 0-0.001 0-0.001 0v0zM997.901 609.967c-89.452 0-161.967-72.515-161.967-161.967s72.515-161.967 161.967-161.967c89.452 0 161.967 72.515 161.967 161.967v0c0 89.452-72.515 161.967-161.967 161.967v0z" />
<glyph unicode="&#xe929;" glyph-name="tag" d="M380.606-64l-380.606 380.606 546.909 546.424 477.091 96.97-96.97-477.091zM138.182 316.606l242.424-242.424 457.697 457.697 61.576 304.97-304.97-62.545zM669.355 674.602l53.14 53.14 68.568-68.568-53.14-53.14-68.568 68.568z" />
<glyph unicode="&#xe92a;" glyph-name="test" horiz-adv-x="892" d="M733.299 457.603v502.397h-733.299v-845.040h360.975c39.618-105.464 139.621-179.152 256.835-179.152 151.148 0 273.678 122.53 273.678 273.678 0 109.229-63.99 203.513-156.528 247.408l-1.661 0.709zM343.516 209.678c0-2.619 0-4.801 0-7.42h-256.218v670.445h558.704v-392.839c-4.244 0.318-9.194 0.498-14.186 0.498s-9.941-0.181-14.842-0.537l0.656 0.038c-149.923-0.226-271.66-120.585-274.111-269.955l-0.003-0.23zM617.63 23.298c-103.176 0-186.816 83.641-186.816 186.817s83.641 186.817 186.817 186.817c103.176 0 186.817-83.641 186.817-186.817 0-0.154 0-0.307-0.001-0.46v0.024c-0.248-102.988-83.794-186.38-186.816-186.38 0 0 0 0-0.001 0v0zM608.464 57.344l-126.581 139.24 64.6 58.926 53.251-58.926 85.552 120.907 71.584-50.196-148.406-209.951zM158.445 697.234h256.655v-87.298h-256.655v87.298zM158.445 465.46h256.655v-87.298h-256.655v87.298zM468.788 697.234h106.066v-87.298h-106.066v87.298z" />
<glyph unicode="&#xe92b;" glyph-name="underline" horiz-adv-x="806" d="M717.274 204.78c-32.148-7.905-74.31-16.865-126.485-25.824-50.876-8.431-109.501-13.248-169.252-13.248-4.42 0-8.833 0.026-13.24 0.079l0.67-0.006c-3.135-0.092-6.824-0.144-10.525-0.144-50.46 0-98.648 9.728-142.791 27.41l2.588-0.915c-40.176 16.375-73.842 41.578-99.781 73.338l-0.352 0.445c-24.238 32.348-42.499 70.683-52.29 112.285l-0.412 2.078c-10.405 41.372-16.375 88.867-16.375 137.757 0 2.337 0.014 4.671 0.041 7.001l-0.003-0.355v435.319h139.133v-406.859c-0.783-8.805-1.229-19.047-1.229-29.394 0-64.004 17.080-124.020 46.931-175.736l-0.905 1.7c32.21-38.053 80.007-62.049 133.41-62.049 6.285 0 12.493 0.332 18.606 0.981l-0.761-0.065h46.378l44.797 4.216 37.945 4.216c9.13 0.835 17.538 2.7 25.509 5.496l-0.739-0.226v657.721h139.133z" />
<glyph unicode="&#xe92c;" glyph-name="undo" horiz-adv-x="2058" d="M1884.079 599.779c-163.24 219.459-421.811 360.090-713.228 360.090-198.564 0-381.879-65.291-529.647-175.576l2.337 1.668c-155.968-115.177-271.027-277.82-324.332-466.385l-1.486-6.153-132.553 298.498-185.17-81.96 264.095-593.96 579.794 294.451-92.079 180.111-228.68-116.364c46.92 134.804 130.588 246.88 239.004 327.56l1.819 1.294c112.089 83.494 253.285 133.672 406.201 133.672 224.655 0 424.015-108.304 548.715-275.547l1.289-1.809c83.812-111.201 134.232-251.684 134.232-403.944 0-35.995-2.818-71.332-8.245-105.803l0.495 3.818 202.372-30.356c6.181 39.19 9.712 84.384 9.712 130.403 0 198.34-65.593 381.361-176.271 528.552l1.626-2.259z" />
</font>
</defs>
</svg>
