<svg width="1918" height="145" viewBox="0 0 1918 145" fill="none" xmlns="http://www.w3.org/2000/svg">
<mask id="mask0_863_1666" style="mask-type:alpha" maskUnits="userSpaceOnUse" x="0" y="0" width="1918" height="145">
<path d="M0 0H1918V145H0V0Z" fill="white"/>
</mask>
<g mask="url(#mask0_863_1666)">
<path d="M59.55 73.1101L2.27002 97.4801L59.55 121.85L116.82 97.4801L59.55 73.1101Z" fill="#1AA39D"/>
<path d="M2.27 48.74L-55 73.11L2.27 97.48L59.55 73.11L2.27 48.74Z" fill="#FFCC10"/>
<path d="M2.27 97.48L-55 121.85L2.27 146.22L59.55 121.85L2.27 97.48Z" fill="#FE4D10"/>
<path d="M59.55 121.85L2.27002 146.22L59.55 170.59L116.82 146.22L59.55 121.85Z" fill="#FFCC10"/>
<path d="M116.82 48.74L59.55 73.11L116.82 97.48L174.09 73.11L116.82 48.74Z" fill="#F99BCC"/>
<path d="M174.09 24.3701L116.82 48.7401L174.09 73.1101L231.37 48.7401L174.09 24.3701Z" fill="#FFCC10"/>
<path d="M174.09 73.1101L116.82 97.4801L174.09 121.85L231.37 97.4801L174.09 73.1101Z" fill="#FE4D10"/>
<path d="M116.82 97.48L59.55 121.85L116.82 146.22L174.09 121.85L116.82 97.48Z" fill="#262B90"/>
<path d="M174.09 121.85L116.82 146.22L174.09 170.59L231.37 146.22L174.09 121.85Z" fill="#F99BCC"/>
<path d="M288.64 121.85L231.37 146.22L288.64 170.59L345.91 146.22L288.64 121.85Z" fill="#1AA39D"/>
<path d="M231.37 97.48L174.09 121.85L231.37 146.22L288.64 121.85L231.37 97.48Z" fill="#FFCC10"/>
<path d="M403.19 24.3701L345.91 48.7401L403.19 73.1101L460.46 48.7401L403.19 24.3701Z" fill="#1AA39D"/>
<path d="M345.91 0L288.64 24.37L345.91 48.74L403.19 24.37L345.91 0Z" fill="#FFCC10"/>
<path d="M345.91 48.74L288.64 73.11L345.91 97.48L403.19 73.11L345.91 48.74Z" fill="#FE4D10"/>
<path d="M288.64 73.1101L231.37 97.4801L288.64 121.85L345.91 97.4801L288.64 73.1101Z" fill="#262B90"/>
<path d="M345.91 97.48L288.64 121.85L345.91 146.22L403.19 121.85L345.91 97.48Z" fill="#F99BCC"/>
<path d="M460.46 97.48L403.19 121.85L460.46 146.22L517.73 121.85L460.46 97.48Z" fill="#1AA39D"/>
<path d="M403.19 73.1101L345.91 97.4801L403.19 121.85L460.46 97.4801L403.19 73.1101Z" fill="#FFCC10"/>
<path d="M403.19 121.85L345.91 146.22L403.19 170.59L460.46 146.22L403.19 121.85Z" fill="#FE4D10"/>
<path d="M517.73 73.1101L460.46 97.4801L517.73 121.85L575.01 97.4801L517.73 73.1101Z" fill="#F99BCC"/>
<path d="M575.01 48.74L517.73 73.11L575.01 97.48L632.28 73.11L575.01 48.74Z" fill="#FFCC10"/>
<path d="M575.01 97.48L517.73 121.85L575.01 146.22L632.28 121.85L575.01 97.48Z" fill="#FE4D10"/>
<path d="M517.73 121.85L460.46 146.22L517.73 170.59L575.01 146.22L517.73 121.85Z" fill="#262B90"/>
<path d="M632.28 121.85L575.01 146.22L632.28 170.59L689.55 146.22L632.28 121.85Z" fill="#FFCC10"/>
<path d="M803.55 97.1101L746.27 121.48L803.55 145.85L860.82 121.48L803.55 97.1101Z" fill="#1AA39D"/>
<path d="M746.27 72.74L689 97.11L746.27 121.48L803.55 97.11L746.27 72.74Z" fill="#FFCC10"/>
<path d="M746.27 121.48L689 145.85L746.27 170.22L803.55 145.85L746.27 121.48Z" fill="#FE4D10"/>
<path d="M860.82 72.74L803.55 97.11L860.82 121.48L918.09 97.11L860.82 72.74Z" fill="#F99BCC"/>
<path d="M918.09 48.3701L860.82 72.7401L918.09 97.1101L975.37 72.7401L918.09 48.3701Z" fill="#FFCC10"/>
<path d="M918.09 97.1101L860.82 121.48L918.09 145.85L975.37 121.48L918.09 97.1101Z" fill="#FE4D10"/>
<path d="M860.82 121.48L803.55 145.85L860.82 170.22L918.09 145.85L860.82 121.48Z" fill="#262B90"/>
<path d="M975.37 121.48L918.09 145.85L975.37 170.22L1032.64 145.85L975.37 121.48Z" fill="#FFCC10"/>
<path d="M1147.19 48.3701L1089.91 72.7401L1147.19 97.1101L1204.46 72.7401L1147.19 48.3701Z" fill="#1AA39D"/>
<path d="M1089.91 24L1032.64 48.37L1089.91 72.74L1147.19 48.37L1089.91 24Z" fill="#FFCC10"/>
<path d="M1089.91 72.74L1032.64 97.11L1089.91 121.48L1147.19 97.11L1089.91 72.74Z" fill="#FE4D10"/>
<path d="M1032.64 97.1101L975.37 121.48L1032.64 145.85L1089.91 121.48L1032.64 97.1101Z" fill="#262B90"/>
<path d="M1089.91 121.48L1032.64 145.85L1089.91 170.22L1147.19 145.85L1089.91 121.48Z" fill="#F99BCC"/>
<path d="M1204.46 121.48L1147.19 145.85L1204.46 170.22L1261.73 145.85L1204.46 121.48Z" fill="#1AA39D"/>
<path d="M1147.19 97.1101L1089.91 121.48L1147.19 145.85L1204.46 121.48L1147.19 97.1101Z" fill="#FFCC10"/>
<path d="M1261.73 97.1101L1204.46 121.48L1261.73 145.85L1319.01 121.48L1261.73 97.1101Z" fill="#F99BCC"/>
<path d="M1319.01 72.74L1261.73 97.11L1319.01 121.48L1376.28 97.11L1319.01 72.74Z" fill="#FFCC10"/>
<path d="M1319.01 121.48L1261.73 145.85L1319.01 170.22L1376.28 145.85L1319.01 121.48Z" fill="#FE4D10"/>
<path d="M1378.55 96.1101L1321.27 120.48L1378.55 144.85L1435.82 120.48L1378.55 96.1101Z" fill="#1AA39D"/>
<path d="M1321.27 71.74L1264 96.11L1321.27 120.48L1378.55 96.11L1321.27 71.74Z" fill="#FFCC10"/>
<path d="M1321.27 120.48L1264 144.85L1321.27 169.22L1378.55 144.85L1321.27 120.48Z" fill="#FE4D10"/>
<path d="M1435.82 71.74L1378.55 96.11L1435.82 120.48L1493.09 96.11L1435.82 71.74Z" fill="#F99BCC"/>
<path d="M1493.09 47.3701L1435.82 71.7401L1493.09 96.1101L1550.37 71.7401L1493.09 47.3701Z" fill="#FFCC10"/>
<path d="M1493.09 96.1101L1435.82 120.48L1493.09 144.85L1550.37 120.48L1493.09 96.1101Z" fill="#FE4D10"/>
<path d="M1435.82 120.48L1378.55 144.85L1435.82 169.22L1493.09 144.85L1435.82 120.48Z" fill="#262B90"/>
<path d="M1550.37 120.48L1493.09 144.85L1550.37 169.22L1607.64 144.85L1550.37 120.48Z" fill="#FFCC10"/>
<path d="M1722.19 47.3701L1664.91 71.7401L1722.19 96.1101L1779.46 71.7401L1722.19 47.3701Z" fill="#1AA39D"/>
<path d="M1664.91 23L1607.64 47.37L1664.91 71.74L1722.19 47.37L1664.91 23Z" fill="#FFCC10"/>
<path d="M1664.91 71.74L1607.64 96.11L1664.91 120.48L1722.19 96.11L1664.91 71.74Z" fill="#FE4D10"/>
<path d="M1607.64 96.1101L1550.37 120.48L1607.64 144.85L1664.91 120.48L1607.64 96.1101Z" fill="#262B90"/>
<path d="M1664.91 120.48L1607.64 144.85L1664.91 169.22L1722.19 144.85L1664.91 120.48Z" fill="#F99BCC"/>
<path d="M1779.46 120.48L1722.19 144.85L1779.46 169.22L1836.73 144.85L1779.46 120.48Z" fill="#1AA39D"/>
<path d="M1722.19 96.1101L1664.91 120.48L1722.19 144.85L1779.46 120.48L1722.19 96.1101Z" fill="#FFCC10"/>
<path d="M1836.73 96.1101L1779.46 120.48L1836.73 144.85L1894.01 120.48L1836.73 96.1101Z" fill="#F99BCC"/>
<path d="M1894.01 71.74L1836.73 96.11L1894.01 120.48L1951.28 96.11L1894.01 71.74Z" fill="#FFCC10"/>
<path d="M1894.01 120.48L1836.73 144.85L1894.01 169.22L1951.28 144.85L1894.01 120.48Z" fill="#FE4D10"/>
<path d="M1834.27 96.3699L1777 120.74L1834.27 145.11L1891.55 120.74L1834.27 96.3699Z" fill="#F99BCC"/>
<path d="M1948.82 96.3699L1891.55 120.74L1948.82 145.11L2006.09 120.74L1948.82 96.3699Z" fill="#1AA39D"/>
<path d="M1891.55 72L1834.27 96.37L1891.55 120.74L1948.82 96.37L1891.55 72Z" fill="#FFCC10"/>
<path d="M1891.55 120.74L1834.27 145.11L1891.55 169.48L1948.82 145.11L1891.55 120.74Z" fill="#FE4D10"/>
</g>
</svg>
